<?xml version="1.0" encoding="utf-8"?>
<!-- Generator: Adobe Illustrator 23.0.5, SVG Export Plug-In . SVG Version: 6.00 Build 0)  -->
<svg version="1.1" id="Layer_1" xmlns="http://www.w3.org/2000/svg" xmlns:xlink="http://www.w3.org/1999/xlink" x="0px" y="0px"
	 viewBox="0 0 50 50" style="enable-background:new 0 0 50 50;" xml:space="preserve">
<style type="text/css">
	.st0{fill:#FFFFFF;}
</style>
<g>
	<path class="st0" d="M25.03,20.83c6.17,0,12.33,0,18.5,0c2.08,0,3.72,1.18,4.23,3.03c0.74,2.64-1.11,5.15-3.91,5.31
		c-0.13,0.01-0.26,0.01-0.39,0.01c-12.3,0-24.6,0-36.9,0c-2.02,0-3.57-1.01-4.2-2.73c-1.03-2.79,1.01-5.6,4.08-5.62
		c3.51-0.01,7.03,0,10.54,0C19.66,20.83,22.34,20.83,25.03,20.83z"/>
	<path class="st0" d="M24.95,14.58c-6.17,0-12.33,0-18.5,0c-2.14,0-3.75-1.22-4.25-3.18C1.58,8.9,3.43,6.4,5.99,6.26
		c0.16-0.01,0.33-0.01,0.49-0.01c12.35,0,24.7,0,37.05,0c2.15,0,3.79,1.23,4.28,3.21c0.61,2.49-1.25,5.02-3.82,5.09
		c-2.44,0.06-4.88,0.02-7.32,0.02C32.76,14.58,28.86,14.58,24.95,14.58z"/>
	<path class="st0" d="M25.02,35.42c6.18,0,12.37,0,18.55,0c2.12,0,3.72,1.2,4.22,3.15c0.65,2.51-1.21,5.03-3.79,5.16
		c-0.11,0.01-0.23,0.01-0.34,0.01c-12.43,0-24.86,0-37.29,0c-2.04,0-3.67-1.26-4.15-3.18c-0.64-2.51,1.23-5.06,3.83-5.12
		c2.76-0.06,5.53-0.02,8.3-0.02C17.9,35.42,21.46,35.42,25.02,35.42z"/>
</g>
</svg>
